HIERARCHY
ROOT Hip
{
   OFFSET 0.00000 0.00000 0.00000
   CHANNELS 6 Xposition Yposition Zposition Zrotation Yrotation Xrotation
   JOINT Head
   {
      OFFSET 0.000000 17.817001 0.000000
      CHANNELS 3 Zrotation Yrotation Xrotation
      End Site
      {
         OFFSET 0.000000 10.615500 0.000000
      }
      JOINT LeftShoulder
      {
         OFFSET 5.890950 0.000000 0.000000
         CHANNELS 3 Zrotation Yrotation Xrotation
         JOINT LeftHand
         {
            OFFSET 0.000000 -8.608500 0.000000
            CHANNELS 3 Zrotation Yrotation Xrotation
            End Site
            {
               OFFSET 0.000000 -9.428249 0.000000
            }
         }
      }
      JOINT RightShoulder
      {
         OFFSET -6.278400 0.000000 0.000000
         CHANNELS 3 Zrotation Yrotation Xrotation
         JOINT RghtHand
         {
            OFFSET 0.000000 -10.314751 0.000000
            CHANNELS 3 Zrotation Yrotation Xrotation
            End Site
            {
               OFFSET 0.000000 -7.065600 0.000000
            }
         }
      }
   }
   JOINT LeftHip
   {
      OFFSET 6.233475 0.000000 0.000000
      CHANNELS 3 Zrotation Yrotation Xrotation
      JOINT LeftKnee
      {
         OFFSET 0.000000 -17.570998 0.000000
         CHANNELS 3 Zrotation Yrotation Xrotation
         JOINT LeftFoot
         {
            OFFSET 0.000000 -13.397250 0.000000
            CHANNELS 3 Zrotation Yrotation Xrotation
            End Site
            {
               OFFSET 0.000000 0.000000 8.730750
            }
         }
      }
   }
   JOINT RightHip
   {
      OFFSET -6.233475 0.000000 0.000000
      CHANNELS 3 Zrotation Yrotation Xrotation
      JOINT RightKnee
      {
         OFFSET 0.000000 -15.902250 0.000000
         CHANNELS 3 Zrotation Yrotation Xrotation
         JOINT RightFoot
         {
            OFFSET 0.000000 -13.638000 0.000000
            CHANNELS 3 Zrotation Yrotation Xrotation
            End Site
            {
               OFFSET 0.000000 0.000000 8.769749
            }
         }
      }
   }
}
MOTION
Frames: 29
Frame Time: 0.016670
7.735386 37.879295 -15.106845 122.181374 82.215711 124.463791 -7.414524 17.858682 -24.245414 24.906660 -17.124353 23.294985 -8.844540 -0.652406 7.285380 -42.513290 -4.906740 39.422312 -20.746688 3.367644 40.523533 -11.840828 -60.810130 -1.086598 23.096759 -55.946773 -5.625258 21.403357 -53.719479 6.766231 -18.523299 -38.659041 7.003201 -1.753366 -54.699119 1.107421 23.691385 -49.297621 31.762558
7.741245 37.894127 -15.071623 157.215532 61.389829 160.137829 -4.544640 -6.654841 -24.659392 16.939702 -25.490237 26.691049 -11.426846 -2.295510 5.546588 -50.283491 -7.477860 40.507352 -24.395240 3.789121 36.164298 -4.029523 -70.560021 -12.268709 21.581222 -62.608410 -14.313499 23.194516 -60.896676 7.055071 -31.281614 -46.465702 26.224945 13.189278 -58.253666 -14.051577 24.646427 -57.085003 32.261166
7.735794 37.910125 -15.069595 156.652725 62.963450 158.919132 -4.948819 -6.644857 -24.456430 12.295391 -34.807737 29.283914 -14.331362 -3.553481 3.361725 -54.633894 -12.372778 41.357058 -28.500651 4.470908 32.444170 -3.878786 -70.890745 -12.023037 21.111515 -62.825822 -14.984060 23.345469 -61.073796 7.372021 -33.027772 -47.674556 27.326747 15.067273 -57.266355 -15.121467 24.241825 -57.018624 31.433313
7.749514 37.919065 -15.071896 156.071325 64.621157 157.740022 -5.248393 -5.745899 -24.195399 7.187076 -42.873333 32.538806 -16.514832 -4.674299 1.089943 -58.886537 -17.099957 42.453123 -32.014063 4.597963 28.609069 -4.383785 -70.996873 -11.149571 20.684704 -62.868196 -15.023491 23.269824 -60.974779 7.468094 -34.287539 -48.501590 27.901714 15.844613 -56.553007 -15.068060 23.992358 -56.568754 30.882803
7.747589 37.922286 -15.052602 155.484803 65.863999 156.676617 -5.396598 -4.767273 -23.978098 1.947930 -49.373399 36.405602 -18.037080 -5.595069 -1.184073 -62.975444 -21.556632 43.897090 -34.977713 4.328510 24.939235 -4.693704 -71.070167 -10.556983 20.379452 -62.862985 -15.129325 23.153937 -60.863495 7.505960 -35.563251 -49.328801 28.599792 16.599108 -55.830332 -14.999737 23.745658 -56.111725 30.375620
7.745592 37.925693 -15.022324 154.926982 66.836782 155.698465 -5.614806 -3.791621 -23.772482 -3.295085 -54.089094 40.594249 -18.981850 -6.283257 -3.290812 -66.927507 -25.628026 45.536120 -37.421165 3.791430 21.542060 -4.967261 -71.104755 -10.027198 20.077503 -62.844359 -15.218128 23.070967 -60.746910 7.573540 -36.932462 -50.132783 29.460074 17.341664 -55.092179 -14.865944 23.497196 -55.637095 29.902281
7.740592 37.925069 -14.979809 154.426056 67.612070 154.791197 -5.760819 -2.755865 -23.494355 -8.193668 -57.339684 44.746232 -19.544588 -6.731322 -5.117683 -70.721309 -29.199014 47.359534 -39.338990 3.077871 18.504208 -5.279294 -71.083063 -9.492570 19.764920 -62.831211 -15.221645 22.993328 -60.627921 7.641733 -38.411731 -50.916683 30.501009 18.140409 -54.301961 -14.708415 23.202941 -55.128612 29.409569
7.725673 37.930040 -14.919015 153.950989 68.198927 153.988090 -5.832507 -1.740185 -23.208233 -12.619446 -59.535310 48.684455 -19.923624 -6.961906 -6.651600 -74.269168 -32.321951 49.284210 -40.814731 2.284295 15.883912 -5.448376 -71.037977 -9.120069 19.505159 -62.815310 -15.254352 22.949234 -60.526432 7.737272 -39.957669 -51.749372 31.627085 18.782849 -53.544107 -14.396012 22.972276 -54.588026 29.034642
7.725783 37.931649 -14.866541 153.430050 68.957583 153.077926 -5.866525 -0.509907 -22.757728 -16.596403 -60.956344 52.325157 -20.154585 -7.000043 -8.016415 -77.540774 -35.038969 51.162772 -41.960881 1.486212 13.619226 -6.097038 -70.979408 -8.214858 19.243284 -62.683119 -15.022163 22.831741 -60.264501 7.780900 -41.561336 -52.483290 32.815825 19.316871 -52.721793 -13.857655 22.720110 -53.921284 28.674637
7.671314 37.933916 -14.751210 153.130710 69.105996 152.609963 -5.914453 0.277852 -22.512857 -20.171712 -61.700828 55.644294 -20.252862 -6.862697 -9.231354 -80.511388 -37.319604 53.006687 -42.767817 0.702052 11.722107 -5.724081 -70.759360 -8.466690 19.035099 -62.769384 -15.115111 22.794039 -60.295913 7.833825 -43.100324 -53.608785 34.069731 19.658234 -51.926657 -13.475896 22.465775 -53.259469 28.333192
7.633383 37.952771 -14.652183 152.712320 69.481506 151.962106 -5.969838 1.281703 -22.128794 -23.423698 -62.063764 58.685457 -20.327179 -6.572304 -10.281930 -83.167443 -39.285049 54.731925 -43.332042 -0.045238 10.055443 -5.852436 -70.657050 -8.110389 18.912804 -62.652895 -15.035707 22.773348 -60.110480 7.960465 -44.652491 -54.702333 35.318092 19.705958 -51.079860 -12.842382 22.322312 -52.449494 28.186399
7.581150 37.965981 -14.530582 152.424592 69.734257 151.510152 -5.927388 2.145731 -21.734960 -26.346879 -62.186810 61.423311 -20.528327 -6.152123 -11.214595 -85.509262 -40.911535 56.355973 -43.800098 -0.717995 8.657518 -5.872518 -70.604697 -7.863063 18.932601 -62.503771 -14.970287 22.730386 -59.923442 8.053404 -46.198355 -55.909408 36.600914 19.679361 -50.216087 -12.185933 22.090763 -51.620142 27.940234
7.508231 37.983992 -14.421861 152.068698 69.911521 151.070479 -5.909545 2.979599 -21.282282 -28.993907 -62.044742 63.893886 -20.716987 -5.616671 -11.990590 -87.561201 -42.344267 57.825283 -44.283849 -1.316890 7.482891 -5.922825 -70.293752 -7.750952 18.831243 -62.496661 -14.695200 22.696174 -59.837013 8.121089 -47.740693 -57.106460 37.735839 19.461591 -49.413772 -11.289328 21.841519 -50.790953 27.684377
7.433237 37.999508 -14.290054 151.813590 69.936219 150.829292 -5.715625 3.687587 -20.863795 -31.349018 -61.704045 66.111580 -20.994273 -4.977696 -12.757932 -89.320228 -43.580251 59.134542 -44.681906 -1.861433 6.463311 -5.781896 -70.135838 -7.785438 18.967982 -62.368500 -14.566454 22.675818 -59.691325 8.211898 -49.212852 -58.388343 38.880975 19.137379 -48.608257 -10.435370 21.567600 -49.966123 27.408171
7.365414 38.023066 -14.179252 151.492271 70.021945 150.495473 -5.414207 4.382832 -20.420975 -33.443475 -61.209567 68.153157 -21.278081 -4.238942 -13.351908 -90.796519 -44.672910 60.386795 -44.896432 -2.382998 5.624581 -5.826557 -69.856012 -7.693480 18.980151 -62.309876 -14.290449 22.668508 -59.578429 8.302929 -50.727535 -59.548915 40.042626 18.793534 -47.813076 -9.549362 21.343972 -49.179107 27.216111
7.293581 38.040444 -14.050692 151.321789 69.976333 150.323926 -5.093610 4.998776 -20.023210 -35.345221 -60.620750 69.940707 -21.721649 -3.433283 -13.845330 -92.058389 -45.652752 61.542661 -45.018139 -2.870789 5.060465 -5.596988 -69.674165 -7.838973 19.051710 -62.252427 -14.215605 22.648716 -59.504198 8.364165 -52.229002 -60.660023 41.285171 18.457963 -47.020583 -8.745079 21.054379 -48.422855 26.943906
7.215780 38.054869 -13.915584 151.220716 69.937592 150.220367 -4.814586 5.562343 -19.602527 -37.046714 -60.052348 71.497806 -22.260258 -2.560288 -14.286007 -93.187536 -46.483836 62.547211 -45.203254 -3.323424 4.682647 -5.271433 -69.406791 -8.087396 19.042504 -62.299924 -14.115989 22.627278 -59.519648 8.397144 -53.735308 -61.709612 42.579372 18.172622 -46.258740 -7.980455 20.763565 -47.728744 26.681792
7.142125 38.066680 -13.797872 151.146895 69.906228 150.079952 -4.582731 6.036246 -19.134568 -38.582615 -59.560185 72.836352 -22.866430 -1.624606 -14.640717 -94.169280 -47.259438 63.403055 -45.463290 -3.745884 4.409381 -5.084070 -69.223250 -8.206054 18.996419 -62.341869 -14.037050 22.573978 -59.526963 8.393776 -55.302816 -62.556985 43.939799 17.990629 -45.562348 -7.291614 20.465598 -47.139691 26.410636
7.066938 38.079941 -13.680044 151.105723 69.864858 149.925699 -4.441710 6.475500 -18.593686 -39.958809 -59.104017 73.993365 -23.578336 -0.631296 -15.029495 -94.991553 -47.996754 64.174156 -45.774767 -4.149545 4.216200 -4.858573 -69.063902 -8.344037 18.942845 -62.389127 -14.003470 22.541999 -59.544209 8.411326 -56.900113 -63.281211 45.355215 17.886874 -44.909839 -6.642583 20.170886 -46.615652 26.153382
6.983903 38.086066 -13.559661 151.112266 69.753389 149.846400 -4.333901 6.778606 -18.066964 -41.173439 -58.729976 74.993811 -24.355546 0.428100 -15.475530 -95.708852 -48.702128 64.865883 -46.213951 -4.534801 4.139352 -4.505095 -68.928999 -8.632788 18.883021 -62.477523 -14.052703 22.525972 -59.615879 8.437102 -58.532788 -63.857269 46.843988 18.007673 -44.304271 -6.135044 19.839686 -46.176525 25.842490
6.906690 38.088767 -13.442820 151.160624 69.669705 149.747950 -4.315817 7.089474 -17.518348 -42.228119 -58.367416 75.893114 -25.149281 1.563454 -15.961426 -96.313918 -49.288172 65.501903 -46.645558 -4.916701 4.136347 -4.207542 -68.829742 -8.847704 18.797295 -62.587475 -14.089921 22.453127 -59.702472 8.391307 -60.162178 -64.298335 48.393301 18.238582 -43.706271 -5.706084 19.502417 -45.759720 25.536800
6.824959 38.088717 -13.326556 151.187125 69.546782 149.647068 -4.305100 7.413159 -16.946507 -43.187914 -58.027703 76.661545 -25.956809 2.777738 -16.471611 -96.776377 -49.893197 66.099559 -47.146467 -5.287805 4.163407 -3.902755 -68.697681 -9.096821 18.692828 -62.698623 -14.133961 22.402916 -59.789734 8.372807 -61.827234 -64.622544 50.012595 18.639410 -43.137538 -5.424826 19.188421 -45.392269 25.270324
6.743209 38.092186 -13.206706 151.206619 69.440129 149.522963 -4.286571 7.723056 -16.391822 -44.043751 -57.650703 77.340445 -26.742161 4.088458 -17.051055 -97.209274 -50.458784 66.662332 -47.895380 -5.639302 4.333592 -3.638569 -68.610760 -9.298935 18.616422 -62.802415 -14.163079 22.373970 -59.873390 8.382051 -63.493616 -64.923981 51.652633 19.089810 -42.575069 -5.173017 18.836328 -45.036010 24.959449
6.668965 38.097121 -13.070826 151.284865 69.359335 149.456396 -4.192354 8.045950 -15.886858 -44.822307 -57.288751 77.936297 -27.516988 5.505704 -17.654475 -97.597748 -50.991266 67.170730 -48.861223 -5.966554 4.568028 -3.359362 -68.614830 -9.436973 18.655446 -62.824551 -14.236933 22.324656 -59.896784 8.381195 -65.126441 -65.184723 53.357414 19.552482 -42.004195 -4.972605 18.529941 -44.673351 24.731538
6.582510 38.095619 -12.928705 151.341911 69.254922 149.391236 -4.118305 8.374287 -15.346349 -45.565319 -56.928841 78.431035 -28.152846 7.048916 -18.238559 -97.983558 -51.577603 67.624282 -50.282787 -6.232078 4.876786 -3.056739 -68.627883 -9.643599 18.707454 -62.893393 -14.297809 22.243524 -59.970454 8.331705 -66.766964 -65.399116 55.030441 20.087571 -41.442470 -4.725784 18.175256 -44.323287 24.439532
6.488399 38.096454 -12.780353 151.431509 69.135004 149.392302 -4.090227 8.785284 -14.901147 -46.181737 -56.656160 78.928976 -28.975076 8.669133 -18.893469 -98.310977 -52.099416 68.051804 -52.226222 -6.407050 5.105114 -2.655618 -68.586151 -9.955687 18.764485 -62.979644 -14.378318 22.196597 -60.068563 8.321529 -68.384312 -65.604978 56.657317 20.596926 -40.900754 -4.402384 17.824528 -43.985708 24.163635
6.381630 38.099479 -12.624794 151.541557 69.022470 149.462516 -4.033188 9.239637 -14.613743 -46.695965 -56.397432 79.430640 -29.874172 10.390652 -19.556237 -98.527227 -52.621755 68.417431 -55.071187 -6.408883 5.011027 -2.124327 -68.477346 -10.439539 18.821298 -63.172679 -14.448983 22.131087 -60.277096 8.263368 -69.949415 -65.827915 58.225116 21.147360 -40.370188 -4.022434 17.431754 -43.659956 23.834893
6.271804 38.112192 -12.457273 151.713405 68.889179 149.616605 -3.996894 9.772423 -14.375919 -47.150012 -56.232555 79.916826 -30.862783 12.224419 -20.167938 -98.798106 -53.141057 68.796063 -58.753390 -6.241655 5.021678 -1.505511 -68.472482 -10.952767 19.015732 -63.284025 -14.635690 22.119339 -60.452037 8.279847 -71.458976 -66.067976 59.745789 21.581992 -39.862767 -3.575423 17.091761 -43.344582 23.600728
6.154342 38.130884 -12.279674 151.903489 68.771795 149.832139 -4.036851 10.391156 -14.130256 -47.479353 -56.211060 80.437990 -32.055133 14.141887 -20.862208 -98.929662 -53.676858 69.113223 -63.163691 -5.908745 4.695148 -0.775350 -68.541522 -11.530089 19.347993 -63.347382 -14.921465 22.108233 -60.624889 8.299382 -72.925670 -66.342891 61.189233 21.928326 -39.378523 -3.006220 16.753973 -43.044873 23.381612
